<svg version="1.1" xmlns="http://www.w3.org/2000/svg" xmlns:xlink="http://www.w3.org/1999/xlink" role="img" width="125" height="90" viewbox="0 0 125 90"><title>C3D</title><desc>Generated by logo.svg, https://github.com/bubkoo/logo.svg</desc><path fill="#2b68a7" d="M21.99 70.99Q13.67 70.99 9 66.51Q4.33 62.03 4.33 53.84Q4.33 48.14 6.18 42.80Q8.04 37.46 11.53 33.23Q15.02 29.01 19.88 26.51Q24.74 24.02 30.70 24.02Q36.33 24.02 39.43 25.97Q42.54 27.92 42.54 31.12Q42.54 33.42 40.78 34.77Q39.02 36.11 36.26 36.11Q36.26 34.38 35.82 32.34Q35.37 30.29 33.99 28.85Q32.62 27.41 29.86 27.41Q26.34 27.41 23.43 29.10Q20.52 30.80 18.25 33.65Q15.98 36.50 14.44 40.08Q12.90 43.66 12.10 47.47Q11.30 51.28 11.30 54.86Q11.30 60.56 14.15 63.70Q17 66.83 22.70 66.83Q27.24 66.83 30.06 65.01Q32.87 63.18 34.54 61.01Q35.37 61.65 35.37 63.12Q35.37 64.85 33.99 66.67Q32.62 68.50 29.67 69.74Q26.73 70.99 21.99 70.99ZM53.35 70.99Q48.81 70.99 46.06 70.03Q43.30 69.07 42.12 67.54Q40.94 66 40.94 64.27Q40.94 62.03 42.38 60.78Q43.82 59.54 45.80 59.54Q45.80 61.52 46.60 63.31Q47.40 65.10 49.16 66.29Q50.92 67.47 53.80 67.47Q56.62 67.47 59.02 66.26Q61.42 65.04 62.82 62.64Q64.23 60.24 64.23 56.66Q64.23 52.69 61.86 50.51Q59.50 48.34 55.21 48.34L52.46 48.34L53.10 45.07L55.14 45.07Q58.73 45.07 61.54 43.57Q64.36 42.06 65.99 39.38Q67.62 36.69 67.62 33.04Q67.62 30.48 66.31 28.85Q65 27.22 62.18 27.22Q59.30 27.22 57.48 28.56Q55.66 29.90 54.66 32.08Q53.67 34.26 53.10 36.75Q51.11 36.75 49.74 35.89Q48.36 35.02 48.36 32.66Q48.36 30.03 50.25 28.08Q52.14 26.13 55.34 25.07Q58.54 24.02 62.44 24.02Q67.75 24.02 70.98 26.42Q74.22 28.82 74.22 33.17Q74.22 36.18 72.78 38.86Q71.34 41.55 68.49 43.54Q65.64 45.52 61.35 46.29Q65.77 46.80 68.36 49.30Q70.95 51.79 70.95 55.95Q70.95 60.18 69.35 63.09Q67.75 66 65.13 67.73Q62.50 69.46 59.43 70.22Q56.36 70.99 53.35 70.99ZM75.56 70.35L76.07 67.66L76.90 67.66Q79.08 67.66 80.81 66.86Q82.54 66.06 83.18 63.06L89.83 31.70Q89.96 31.25 90.02 30.77Q90.09 30.29 90.09 29.90Q90.09 28.18 88.65 27.76Q87.21 27.34 85.48 27.34L84.65 27.34L85.22 24.66L103.14 24.66Q111.78 24.66 116.55 29.10Q121.32 33.55 121.32 42.06Q121.32 47.76 119.66 52.88Q117.99 58 114.73 61.94Q111.46 65.87 106.70 68.11Q101.93 70.35 95.72 70.35L75.56 70.35M88.74 67.09L94.31 67.09Q100.58 67.09 105.10 63.79Q109.61 60.50 111.98 54.70Q114.34 48.91 114.34 41.36Q114.34 34.38 111.05 31.12Q107.75 27.86 102.18 27.86L97.13 27.86L88.74 67.09Z"></path></svg>